# Alias OBJ Model File
# Exported from SketchUp, (c) 2000-2012 Trimble Navigation Limited
# File units = centimeters

mtllib CubeBevel.mtl

g Mesh1 Model

usemtl FrontColor
v 40 -50 -40
vt -15.748 15.748
vn 0 -1 -0
v -40 -50 40
vt 15.748 -15.748
v -40 -50 -40
vt 15.748 15.748
f 1/1/1 2/2/1 3/3/1

v 40 -50 40
vt -15.748 -15.748
f 2/2/1 1/1/1 4/4/1

vt 15.748 -2.78388
vn 0.707107 -0.707107 -0
v 50 -40 40
vt -15.748 2.78388
vt -15.748 -2.78388
f 1/5/2 5/6/2 4/7/2

v 50 -40 -40
vt 15.748 2.78388
f 5/6/2 1/5/2 6/8/2

v 40 -40 -50
vt 2.78388 1.60728
vn 0.57735 -0.57735 -0.57735
vt -2.78388 1.60728
vt 5.32907e-15 -3.21455
f 7/9/3 6/10/3 1/11/3

vt 2.78388 -15.748
vn 0.707107 0 -0.707107
v 50 40 -40
vt -2.78388 15.748
vt -2.78388 -15.748
f 7/12/4 8/13/4 6/14/4

v 40 40 -50
vt 2.78388 15.748
f 8/13/4 7/12/4 9/15/4

vn 0 0 -1
v -40 40 -50
f 7/4/5 10/3/5 9/1/5

v -40 -40 -50
f 10/3/5 7/4/5 11/2/5

vn 0 -0.707107 -0.707107
f 1/7/6 11/8/6 7/6/6

f 11/8/6 1/7/6 3/5/6

vn -0.57735 -0.57735 -0.57735
vt -8.88178e-15 -3.21455
v -50 -40 -40
f 11/10/7 3/16/7 12/9/7

vn -0.707107 -0.707107 -0
f 2/5/8 12/6/8 3/7/8

v -50 -40 40
f 12/6/8 2/5/8 13/8/8

vt 3.01981e-14 -3.21455
vn -0.57735 -0.57735 0.57735
v -40 -40 50
f 2/17/9 14/9/9 13/10/9

vn 0 -0.707107 0.707107
f 4/5/10 14/6/10 2/7/10

v 40 -40 50
f 14/6/10 4/5/10 15/8/10

vn 0.57735 -0.57735 0.57735
vt -2.4869e-14 -3.21455
f 5/9/11 15/10/11 4/18/11

vn 0.707107 0 0.707107
v 40 40 50
f 5/12/12 16/13/12 15/14/12

v 50 40 40
f 16/13/12 5/12/12 17/15/12

vn 1 0 -0
f 6/2/13 17/1/13 5/4/13

f 17/1/13 6/2/13 8/3/13

vn 0.707107 0.707107 -0
v 40 50 40
f 8/5/14 18/6/14 17/7/14

v 40 50 -40
f 18/6/14 8/5/14 19/8/14

vt 2.78388 -1.60728
vn 0.57735 0.57735 -0.57735
vt 5.32907e-15 3.21455
vt -2.78388 -1.60728
f 9/19/15 19/20/15 8/21/15

vn 0 0.707107 -0.707107
v -40 50 -40
f 9/7/16 20/8/16 19/6/16

f 20/8/16 9/7/16 10/5/16

vn -0.57735 0.57735 -0.57735
v -50 40 -40
vt -8.88178e-15 3.21455
f 10/21/17 21/19/17 20/22/17

vn -0.707107 0 -0.707107
f 10/13/18 12/12/18 21/15/18

f 12/12/18 10/13/18 11/14/18

vn -1 0 -0
f 13/2/19 21/1/19 12/4/19

v -50 40 40
f 21/1/19 13/2/19 22/3/19

vn -0.707107 0 0.707107
f 14/12/20 22/13/20 13/14/20

v -40 40 50
f 22/13/20 14/12/20 23/15/20

vn 0 0 1
f 14/4/21 16/3/21 23/1/21

f 16/3/21 14/4/21 15/2/21

vn 0 0.707107 0.707107
v -40 50 40
f 16/5/22 24/6/22 23/7/22

f 24/6/22 16/5/22 18/8/22

vt -2.13163e-14 3.21455
vn 0.57735 0.57735 0.57735
f 18/23/23 16/21/23 17/19/23

vn 0 1 -0
f 18/2/24 20/1/24 24/4/24

f 20/1/24 18/2/24 19/3/24

vn -0.707107 0.707107 -0
f 20/6/25 22/5/25 24/8/25

f 22/5/25 20/6/25 21/7/25

vn -0.57735 0.57735 0.57735
vt 2.66454e-14 3.21455
f 22/21/26 23/19/26 24/24/26

