# Alias OBJ Model File
# Exported from SketchUp, (c) 2000-2012 Trimble Navigation Limited
# File units = centimeters

mtllib CubeHollow.mtl

g Mesh1 Model

usemtl FrontColor
v -50 -50 -50
vt 19.685 19.685
vn 0 -1 -0
v -40 -50 -40
vt 15.748 15.748
v -50 -50 50
vt 19.685 -19.685
f 1/1/1 2/2/1 3/3/1

v 50 -50 -50
vt -19.685 19.685
f 2/2/1 1/1/1 4/4/1

v -50 50 -50
vn 0 0 -1
vt -19.685 -19.685
f 5/1/2 4/5/2 1/3/2

v 50 50 -50
f 4/5/2 5/1/2 6/4/2

vn 0 1 -0
v -40 50 -40
vt -15.748 15.748
f 5/4/3 7/6/3 6/1/3

v -40 50 40
vt -15.748 -15.748
f 7/6/3 5/4/3 8/7/3

v -50 50 50
f 9/5/3 8/7/3 5/4/3

v 50 50 50
f 8/7/3 9/5/3 10/3/3

vn 0 0 1
f 3/5/4 10/1/4 9/4/4

v 50 -50 50
f 10/1/4 3/5/4 11/3/4

v -40 -50 40
vt 15.748 -15.748
f 3/3/1 12/8/1 11/5/1

f 12/8/1 3/3/1 2/2/1

vt 15.748 -19.685
vn 1 0 -0
vt -15.748 19.685
vt -15.748 -19.685
f 2/9/5 8/10/5 12/11/5

vt 15.748 19.685
f 8/10/5 2/9/5 7/12/5

v 40 50 -40
f 2/11/4 13/12/4 7/10/4

v 40 -50 -40
f 13/12/4 2/11/4 14/9/4

f 2/2/1 4/4/1 14/6/1

v 40 -50 40
f 14/6/1 4/4/1 15/7/1

f 11/5/1 15/7/1 4/4/1

f 11/5/1 12/8/1 15/7/1

f 8/12/2 15/11/2 12/9/2

v 40 50 40
f 15/11/2 8/12/2 16/10/2

f 8/7/3 10/3/3 16/8/3

f 16/8/3 10/3/3 13/2/3

f 6/1/3 13/2/3 10/3/3

f 6/1/3 7/6/3 13/2/3

f 10/4/5 4/3/5 6/1/5

f 4/3/5 10/4/5 11/5/5

vn -1 0 -0
f 13/10/6 15/9/6 16/12/6

f 15/9/6 13/10/6 14/11/6

f 5/4/6 3/3/6 9/1/6

f 3/3/6 5/4/6 1/5/6

