# Alias OBJ Model File
# Exported from SketchUp, (c) 2000-2012 Trimble Navigation Limited
# File units = centimeters

mtllib RoundedCube.mtl

g Mesh1 Model

usemtl Prototype_1m
v 46.5328 -43.8268 46.5328
vt -0.0346719 -0.938269
vn 0.653142 -0.38316 0.653141
v 43.8268 -40 49.2388
vt -0.0617317 -0.900001
vn 0.380839 -0.0980526 0.919428
v 43.5355 -43.8268 48.5355
vt -0.0646447 -0.938269
vn 0.353478 -0.38316 0.853371
f 1/1/1 2/2/2 3/3/3

v 47.0711 -40 47.0711
vt -0.0292894 -0.900001
vn 0.7037 -0.0980527 0.703699
f 2/2/2 1/1/1 4/4/4

vt -0.965328 -0.938269
v 49.2388 -40 43.8268
vt -0.938268 -0.900001
vn 0.919428 -0.0980527 0.380839
vt -0.970711 -0.900001
f 1/5/1 5/6/5 4/7/4

v 48.5355 -43.8268 43.5355
vt -0.935355 -0.938269
vn 0.853371 -0.38316 0.353477
f 5/6/5 1/5/1 6/8/6

v 45 -47.0711 45
vt -0.95 -0.970711
vn 0.499631 -0.707629 0.49963
f 7/9/7 6/8/6 1/5/1

v 46.5328 -47.0711 42.706
vt -0.92706 -0.970711
vn 0.652799 -0.707629 0.270398
f 6/8/6 7/9/7 8/10/8

vt -0.05 -0.05
v 43.5355 -49.2388 41.4645
vt -0.0646447 -0.0853554
vn 0.353102 -0.924082 0.14626
vt -0.0346719 -0.0729403
f 7/11/7 9/12/9 8/13/8

v 42.706 -49.2388 42.706
vt -0.0729402 -0.0729402
vn 0.270252 -0.924082 0.270252
f 9/12/9 7/11/7 10/14/10

v 42.706 -47.0711 46.5328
vt -0.0729401 -0.0346719
vn 0.270398 -0.707629 0.652799
f 11/15/11 10/14/10 7/11/7

v 41.4645 -49.2388 43.5355
vt -0.0853553 -0.0646447
vn 0.14626 -0.924082 0.353102
f 10/14/10 11/15/11 12/16/12

v 40 -47.0711 47.0711
vt -0.1 -0.0292893
vn 0.0697604 -0.705643 0.705125
f 13/17/13 12/16/12 11/15/11

v 40 -49.2388 43.8268
vt -0.1 -0.0617317
vn 0.0379196 -0.923316 0.382164
f 12/16/12 13/17/13 14/18/14

v -40 -47.0711 47.0711
vt -0.9 -0.0292893
vn -0.0697604 -0.705643 0.705125
f 15/19/15 14/18/14 13/17/13

v -40 -49.2388 43.8268
vt -0.9 -0.0617317
vn -0.0379195 -0.923316 0.382164
f 14/18/14 15/19/15 16/20/16

v -41.4645 -49.2388 43.5355
vt -0.914645 -0.0646447
vn -0.14626 -0.924082 0.353102
f 15/19/15 17/21/17 16/20/16

v -42.706 -47.0711 46.5328
vt -0.92706 -0.0346719
vn -0.270398 -0.707629 0.652799
f 17/21/17 15/19/15 18/22/18

vt -0.9 -0.970711
v -43.5355 -43.8268 48.5355
vn -0.353478 -0.38316 0.853371
f 15/23/15 19/8/19 18/10/18

v -40 -43.8268 49.2388
vt -0.9 -0.938269
vn -0.0907512 -0.38134 0.91997
f 19/8/19 15/23/15 20/24/20

vt -0.1 -0.970712
f 13/25/13 20/24/20 15/23/15

v 40 -43.8268 49.2388
vt -0.1 -0.938269
vn 0.0907512 -0.38134 0.91997
f 20/24/20 13/25/13 21/26/21

vt -0.0729403 -0.970712
f 11/27/11 21/26/21 13/25/13

f 21/26/21 11/27/11 3/3/3

vt -0.0500001 -0.970712
f 7/28/7 3/3/3 11/27/11

f 3/3/3 7/28/7 1/1/1

v 40 -40 50
vt -0.1 -0.900001
vn 0.097567 -0.097567 0.990435
f 3/3/3 22/29/22 21/26/21

f 22/29/22 3/3/3 2/2/2

v 40 40 50
vt -0.0999999 -0.100001
vn 0.097567 0.097567 0.990435
f 2/2/2 23/30/23 22/29/22

v 43.8268 40 49.2388
vt -0.0617315 -0.100001
vn 0.380839 0.0980527 0.919428
f 23/30/23 2/2/2 24/31/24

f 4/4/4 24/31/24 2/2/2

v 47.0711 40 47.0711
vt -0.0292892 -0.100001
vn 0.7037 0.0980527 0.703699
f 24/31/24 4/4/4 25/32/25

vt -0.970711 -0.100001
f 5/6/5 25/33/25 4/7/4

v 49.2388 40 43.8268
vt -0.938268 -0.100001
vn 0.919428 0.0980527 0.380839
f 25/33/25 5/6/5 26/34/26

v 50 40 40
vt -0.9 -0.100001
vn 0.990435 0.097567 0.097567
f 5/6/5 27/35/27 26/34/26

v 50 -40 40
vt -0.9 -0.900001
vn 0.990435 -0.097567 0.097567
f 27/35/27 5/6/5 28/36/28

f 6/8/6 28/36/28 5/6/5

v 49.2388 -43.8268 40
vn 0.91997 -0.38134 0.0907512
f 28/36/28 6/8/6 29/24/29

f 8/10/8 29/24/29 6/8/6

v 47.0711 -47.0711 40
vn 0.705125 -0.705643 0.0697604
f 29/24/29 8/10/8 30/23/30

v 43.8268 -49.2388 40
vt -0.0617317 -0.1
vn 0.382164 -0.923316 0.0379196
vt -0.0292893 -0.1
f 8/13/8 31/37/31 30/38/30

f 31/37/31 8/13/8 9/12/9

v 40 -50 40
vt -0.1 -0.1
vn 0.101316 -0.989682 0.101316
f 31/37/31 9/12/9 32/39/32

f 9/12/9 10/14/10 32/39/32

f 10/14/10 12/16/12 32/39/32

f 12/16/12 14/18/14 32/39/32

f 16/20/16 32/39/32 14/18/14

v -40 -50 40
vt -0.9 -0.1
vn -0.101316 -0.989682 0.101316
f 32/39/32 16/20/16 33/40/33

f 16/20/16 17/21/17 33/40/33

v -42.706 -49.2388 42.706
vt -0.92706 -0.0729402
vn -0.270252 -0.924082 0.270252
f 33/40/33 17/21/17 34/41/34

f 18/22/18 34/41/34 17/21/17

v -45 -47.0711 45
vt -0.95 -0.05
vn -0.49963 -0.707629 0.499631
f 34/41/34 18/22/18 35/42/35

v -46.5328 -43.8268 46.5328
vn -0.653141 -0.38316 0.653142
f 18/10/18 36/5/36 35/9/35

f 36/5/36 18/10/18 19/8/19

v -47.0711 -40 47.0711
vn -0.703699 -0.0980527 0.7037
f 19/8/19 37/7/37 36/5/36

v -43.8268 -40 49.2388
vn -0.380839 -0.0980527 0.919428
f 37/7/37 19/8/19 38/6/38

f 20/24/20 38/6/38 19/8/19

v -40 -40 50
vn -0.097567 -0.097567 0.990435
f 38/6/38 20/24/20 39/36/39

f 21/26/21 39/36/39 20/24/20

f 39/36/39 21/26/21 22/29/22

v -40 40 50
vn -0.097567 0.097567 0.990435
f 22/29/22 40/35/40 39/36/39

f 40/35/40 22/29/22 23/30/23

v -40 43.8268 49.2388
vt -0.9 -0.0617324
vn -0.0907512 0.38134 0.91997
f 23/30/23 41/43/41 40/35/40

v 40 43.8268 49.2388
vt -0.0999999 -0.0617326
vn 0.0907512 0.38134 0.91997
f 41/43/41 23/30/23 42/44/42

f 24/31/24 42/44/42 23/30/23

v 43.5355 43.8268 48.5355
vt -0.0646445 -0.0617326
vn 0.353478 0.38316 0.853371
f 42/44/42 24/31/24 43/45/43

f 25/32/25 43/45/43 24/31/24

v 46.5328 43.8268 46.5328
vt -0.0346717 -0.0617326
vn 0.653142 0.38316 0.653142
f 43/45/43 25/32/25 44/46/44

vt -0.965328 -0.0617323
f 26/34/26 44/47/44 25/33/25

v 48.5355 43.8268 43.5355
vt -0.935355 -0.0617324
vn 0.853371 0.38316 0.353478
f 44/47/44 26/34/26 45/48/45

f 27/35/27 45/48/45 26/34/26

v 49.2388 43.8268 40
vn 0.91997 0.38134 0.0907512
f 45/48/45 27/35/27 46/43/46

v 49.2388 43.8268 -40
vn 0.91997 0.38134 -0.0907512
f 27/35/27 47/44/47 46/43/46

v 50 40 -40
vn 0.990435 0.097567 -0.097567
f 47/44/47 27/35/27 48/30/48

f 28/36/28 48/30/48 27/35/27

v 50 -40 -40
vn 0.990435 -0.097567 -0.097567
f 48/30/48 28/36/28 49/29/49

f 29/24/29 49/29/49 28/36/28

v 49.2388 -43.8268 -40
vn 0.91997 -0.38134 -0.0907512
f 49/29/49 29/24/29 50/26/50

f 30/23/30 50/26/50 29/24/29

v 47.0711 -47.0711 -40
vn 0.705125 -0.705643 -0.0697605
f 50/26/50 30/23/30 51/25/51

vt -0.0292893 -0.9
f 31/37/31 51/49/51 30/38/30

v 43.8268 -49.2388 -40
vt -0.0617317 -0.9
vn 0.382165 -0.923316 -0.0379196
f 51/49/51 31/37/31 52/50/52

f 32/39/32 52/50/52 31/37/31

v 40 -50 -40
vt -0.1 -0.9
vn 0.101316 -0.989682 -0.101316
f 52/50/52 32/39/32 53/51/53

f 33/40/33 53/51/53 32/39/32

v -40 -50 -40
vt -0.9 -0.9
vn -0.101316 -0.989682 -0.101316
f 53/51/53 33/40/33 54/52/54

v -43.8268 -49.2388 40
vt -0.938268 -0.1
vn -0.382164 -0.923316 0.0379196
f 55/53/55 54/52/54 33/40/33

v -43.8268 -49.2388 -40
vt -0.938268 -0.9
vn -0.382165 -0.923316 -0.0379196
f 54/52/54 55/53/55 56/54/56

v -47.0711 -47.0711 -40
vt -0.970711 -0.9
vn -0.705125 -0.705643 -0.0697604
f 55/53/55 57/55/57 56/54/56

v -47.0711 -47.0711 40
vt -0.970711 -0.1
vn -0.705125 -0.705643 0.0697604
f 57/55/57 55/53/55 58/56/58

v -46.5328 -47.0711 42.706
vt -0.965328 -0.0729402
vn -0.652799 -0.707629 0.270398
f 55/53/55 59/57/59 58/56/58

v -43.5355 -49.2388 41.4645
vt -0.935355 -0.0853554
vn -0.353102 -0.924082 0.14626
f 59/57/59 55/53/55 60/58/60

f 33/40/33 60/58/60 55/53/55

f 33/40/33 34/41/34 60/58/60

f 35/42/35 60/58/60 34/41/34

f 60/58/60 35/42/35 59/57/59

v -48.5355 -43.8268 43.5355
vn -0.853371 -0.38316 0.353478
f 35/28/35 61/3/61 59/27/59

vt -0.034672 -0.938269
f 61/3/61 35/28/35 36/59/36

v -49.2388 -40 43.8268
vn -0.919427 -0.0980527 0.38084
f 36/59/36 62/2/62 61/3/61

f 62/2/62 36/59/36 37/4/37

v -49.2388 40 43.8268
vn -0.919427 0.0980527 0.38084
f 37/4/37 63/31/63 62/2/62

v -47.0711 40 47.0711
vn -0.703699 0.0980526 0.7037
f 63/31/63 37/4/37 64/32/64

f 38/6/38 64/33/64 37/7/37

v -43.8268 40 49.2388
vn -0.380839 0.0980526 0.919428
f 64/33/64 38/6/38 65/34/65

f 39/36/39 65/34/65 38/6/38

f 65/34/65 39/36/39 40/35/40

v -43.5355 43.8268 48.5355
vn -0.353478 0.38316 0.853371
f 40/35/40 66/48/66 65/34/65

f 66/48/66 40/35/40 41/43/41

v -42.706 47.0711 46.5328
vt -0.92706 -0.02929
vn -0.270398 0.707629 0.652799
f 41/43/41 67/60/67 66/48/66

v -40 47.0711 47.0711
vt -0.9 -0.0292901
vn -0.0697604 0.705643 0.705125
f 67/60/67 41/43/41 68/61/68

f 42/44/42 68/61/68 41/43/41

v 40 47.0711 47.0711
vt -0.0999999 -0.0292903
vn 0.0697603 0.705643 0.705125
f 68/61/68 42/44/42 69/62/69

f 43/45/43 69/62/69 42/44/42

v 42.706 47.0711 46.5328
vt -0.07294 -0.0292903
vn 0.270398 0.707629 0.652799
f 69/62/69 43/45/43 70/63/70

f 44/46/44 70/63/70 43/45/43

v 45 47.0711 45
vt -0.0499999 -0.0292902
vn 0.499631 0.707629 0.49963
f 70/63/70 44/46/44 71/64/71

vt -0.95 -0.02929
f 45/48/45 71/65/71 44/47/44

v 46.5328 47.0711 42.706
vn 0.652799 0.707629 0.270398
f 71/65/71 45/48/45 72/60/72

f 46/43/46 72/60/72 45/48/45

v 47.0711 47.0711 40
vn 0.705125 0.705643 0.0697604
f 72/60/72 46/43/46 73/61/73

v 47.0711 47.0711 -40
vn 0.705125 0.705643 -0.0697604
f 46/43/46 74/62/74 73/61/73

f 74/62/74 46/43/46 47/44/47

v 46.5328 47.0711 -42.706
vn 0.652799 0.707629 -0.270399
f 47/44/47 75/63/75 74/62/74

v 48.5355 43.8268 -43.5355
vn 0.853371 0.38316 -0.353478
f 75/63/75 47/44/47 76/45/76

f 48/30/48 76/45/76 47/44/47

v 49.2388 40 -43.8268
vn 0.919427 0.0980527 -0.38084
f 76/45/76 48/30/48 77/31/77

f 49/29/49 77/31/77 48/30/48

v 49.2388 -40 -43.8268
vn 0.919427 -0.0980527 -0.38084
f 77/31/77 49/29/49 78/2/78

f 50/26/50 78/2/78 49/29/49

v 48.5355 -43.8268 -43.5355
vn 0.853371 -0.38316 -0.353478
f 78/2/78 50/26/50 79/3/79

f 51/25/51 79/3/79 50/26/50

v 46.5328 -47.0711 -42.706
vn 0.652799 -0.707628 -0.270398
f 79/3/79 51/25/51 80/27/80

vt -0.0346719 -0.92706
f 52/50/52 80/66/80 51/49/51

v 43.5355 -49.2388 -41.4645
vt -0.0646447 -0.914645
vn 0.353102 -0.924082 -0.14626
f 80/66/80 52/50/52 81/67/81

f 52/50/52 53/51/53 81/67/81

v 42.706 -49.2388 -42.706
vt -0.0729402 -0.92706
vn 0.270253 -0.924082 -0.270253
f 81/67/81 53/51/53 82/68/82

v 41.4645 -49.2388 -43.5355
vt -0.0853553 -0.935355
vn 0.14626 -0.924082 -0.353102
f 82/68/82 53/51/53 83/69/83

v 40 -49.2388 -43.8268
vt -0.1 -0.938268
vn 0.0379196 -0.923316 -0.382165
f 83/69/83 53/51/53 84/70/84

f 54/52/54 84/70/84 53/51/53

v -40 -49.2388 -43.8268
vt -0.9 -0.938268
vn -0.0379196 -0.923316 -0.382165
f 84/70/84 54/52/54 85/71/85

v -41.4645 -49.2388 -43.5355
vt -0.914645 -0.935355
vn -0.14626 -0.924082 -0.353102
f 54/52/54 86/72/86 85/71/85

v -42.706 -49.2388 -42.706
vt -0.92706 -0.92706
vn -0.270253 -0.924082 -0.270253
f 54/52/54 87/73/87 86/72/86

v -43.5355 -49.2388 -41.4645
vt -0.935355 -0.914645
vn -0.353102 -0.924082 -0.14626
f 54/52/54 88/74/88 87/73/87

f 54/52/54 56/54/56 88/74/88

v -46.5328 -47.0711 -42.706
vt -0.965328 -0.92706
vn -0.652799 -0.707629 -0.270398
f 56/54/56 89/75/89 88/74/88

f 89/75/89 56/54/56 57/55/57

v -49.2388 -43.8268 -40
vn -0.91997 -0.38134 -0.0907512
f 90/24/90 89/10/89 57/23/57

v -48.5355 -43.8268 -43.5355
vn -0.853371 -0.38316 -0.353477
f 89/10/89 90/24/90 91/8/91

v -50 -40 -40
vn -0.990435 -0.097567 -0.097567
f 92/36/92 91/8/91 90/24/90

v -49.2388 -40 -43.8268
vn -0.919428 -0.0980527 -0.380839
f 91/8/91 92/36/92 93/6/93

v -50 40 -40
vn -0.990435 0.097567 -0.097567
f 94/35/94 93/6/93 92/36/92

v -49.2388 40 -43.8268
vn -0.919428 0.0980527 -0.380839
f 93/6/93 94/35/94 95/34/95

v -49.2388 43.8268 -40
vn -0.91997 0.38134 -0.0907512
f 96/43/96 95/34/95 94/35/94

v -48.5355 43.8268 -43.5355
vn -0.853371 0.38316 -0.353478
f 95/34/95 96/43/96 97/48/97

v -47.0711 47.0711 -40
vn -0.705125 0.705643 -0.0697605
f 98/61/98 97/48/97 96/43/96

v -46.5328 47.0711 -42.706
vn -0.652799 0.707628 -0.270398
f 97/48/97 98/61/98 99/60/99

v -43.8268 49.2388 -40
vn -0.382165 0.923316 -0.0379196
f 100/50/100 99/66/99 98/49/98

v -43.5355 49.2388 -41.4645
vn -0.353102 0.924082 -0.146259
f 99/66/99 100/50/100 101/67/101

v -40 50 -40
vn -0.101316 0.989682 -0.101316
f 102/51/102 101/67/101 100/50/100

v -42.706 49.2388 -42.706
vn -0.270253 0.924082 -0.270252
f 102/51/102 103/68/103 101/67/101

v -41.4645 49.2388 -43.5355
vn -0.14626 0.924082 -0.353102
f 102/51/102 104/69/104 103/68/103

v -40 49.2388 -43.8268
vn -0.0379196 0.923316 -0.382165
f 105/70/105 104/69/104 102/51/102

v -40 47.0711 -47.0711
vt -0.1 -0.970711
vn -0.0697604 0.705643 -0.705125
f 106/76/106 104/69/104 105/70/105

v -42.706 47.0711 -46.5328
vt -0.0729402 -0.965328
vn -0.270398 0.707629 -0.652799
f 104/69/104 106/76/106 107/77/107

v -43.5355 43.8268 -48.5355
vn -0.353478 0.38316 -0.853371
f 106/62/106 108/45/108 107/63/107

v -40 43.8268 -49.2388
vn -0.0907512 0.38134 -0.91997
f 108/45/108 106/62/106 109/44/109

v 40 47.0711 -47.0711
vn 0.0697605 0.705643 -0.705125
f 110/61/110 109/44/109 106/62/106

v 40 43.8268 -49.2388
vn 0.0907512 0.38134 -0.91997
f 109/44/109 110/61/110 111/43/111

v 42.706 47.0711 -46.5328
vn 0.270398 0.707628 -0.652799
f 112/60/112 111/43/111 110/61/110

v 43.5355 43.8268 -48.5355
vn 0.353478 0.38316 -0.853371
f 111/43/111 112/60/112 113/48/113

v 45 47.0711 -45
vn 0.499631 0.707628 -0.499631
f 114/65/114 113/48/113 112/60/112

v 46.5328 43.8268 -46.5328
vt -0.965328 -0.0617324
vn 0.653142 0.38316 -0.653142
f 113/48/113 114/65/114 115/78/115

vt -0.0499999 -0.0292903
f 114/79/114 76/45/76 115/46/115

f 76/45/76 114/79/114 75/63/75

vt -0.95 -0.95
v 43.5355 49.2388 -41.4645
vn 0.353102 0.924082 -0.14626
f 114/80/114 116/74/116 75/75/75

v 42.706 49.2388 -42.706
vn 0.270253 0.924082 -0.270253
f 116/74/116 114/80/114 117/73/117

vt -0.92706 -0.965328
f 112/81/112 117/73/117 114/80/114

v 41.4645 49.2388 -43.5355
vn 0.14626 0.924082 -0.353102
f 117/73/117 112/81/112 118/72/118

v 40 49.2388 -43.8268
vn 0.0379197 0.923316 -0.382165
f 112/81/112 119/71/119 118/72/118

f 119/71/119 112/81/112 110/23/110

f 110/23/110 105/70/105 119/71/119

f 105/70/105 110/23/110 106/76/106

v 40 50 -40
vn 0.101316 0.989682 -0.101316
f 105/70/105 120/52/120 119/71/119

f 120/52/120 105/70/105 102/51/102

v 40 50 40
vn 0.101316 0.989682 0.101316
f 102/51/102 121/40/121 120/52/120

v -40 50 40
vn -0.101316 0.989682 0.101316
f 121/40/121 102/51/102 122/39/122

f 100/50/100 122/39/122 102/51/102

v -43.8268 49.2388 40
vn -0.382164 0.923316 0.0379196
f 122/39/122 100/50/100 123/37/123

f 98/49/98 123/37/123 100/50/100

v -47.0711 47.0711 40
vn -0.705125 0.705643 0.0697604
f 123/37/123 98/49/98 124/38/124

f 96/43/96 124/62/124 98/61/98

v -49.2388 43.8268 40
vn -0.91997 0.38134 0.0907512
f 124/62/124 96/43/96 125/44/125

f 94/35/94 125/44/125 96/43/96

v -50 40 40
vn -0.990435 0.097567 0.097567
f 125/44/125 94/35/94 126/30/126

f 92/36/92 126/30/126 94/35/94

v -50 -40 40
vn -0.990435 -0.097567 0.097567
f 126/30/126 92/36/92 127/29/127

f 90/24/90 127/29/127 92/36/92

v -49.2388 -43.8268 40
vn -0.91997 -0.38134 0.0907512
f 127/29/127 90/24/90 128/26/128

f 57/23/57 128/26/128 90/24/90

f 128/26/128 57/23/57 58/25/58

f 59/27/59 128/26/128 58/25/58

f 128/26/128 59/27/59 61/3/61

f 61/3/61 127/29/127 128/26/128

f 127/29/127 61/3/61 62/2/62

f 63/31/63 127/29/127 62/2/62

f 127/29/127 63/31/63 126/30/126

v -48.5355 43.8268 43.5355
vn -0.853371 0.38316 0.353478
f 129/45/129 126/30/126 63/31/63

f 126/30/126 129/45/129 125/44/125

v -46.5328 47.0711 42.706
vn -0.652798 0.707629 0.270399
f 130/63/130 125/44/125 129/45/129

f 125/44/125 130/63/130 124/62/124

vt -0.0346719 -0.0729402
f 130/82/130 123/37/123 124/38/124

v -43.5355 49.2388 41.4645
vn -0.353102 0.924082 0.14626
f 123/37/123 130/82/130 131/12/131

v -45 47.0711 45
vn -0.49963 0.707629 0.499631
f 132/11/132 131/12/131 130/82/130

v -42.706 49.2388 42.706
vn -0.270252 0.924082 0.270253
f 131/12/131 132/11/132 133/14/133

vt -0.0729402 -0.0346719
f 67/83/67 133/14/133 132/11/132

v -41.4645 49.2388 43.5355
vn -0.14626 0.924082 0.353102
f 133/14/133 67/83/67 134/16/134

f 68/17/68 134/16/134 67/83/67

v -40 49.2388 43.8268
vn -0.0379196 0.923316 0.382164
f 134/16/134 68/17/68 135/18/135

v 40 49.2388 43.8268
vn 0.0379195 0.923316 0.382164
f 68/17/68 136/20/136 135/18/135

f 136/20/136 68/17/68 69/19/69

v 41.4645 49.2388 43.5355
vn 0.146259 0.924082 0.353102
f 69/19/69 137/21/137 136/20/136

f 137/21/137 69/19/69 70/22/70

v 42.706 49.2388 42.706
vn 0.270252 0.924082 0.270252
f 70/22/70 138/41/138 137/21/137

f 138/41/138 70/22/70 71/42/71

v 43.5355 49.2388 41.4645
vn 0.353102 0.924082 0.146259
f 71/42/71 139/58/139 138/41/138

f 139/58/139 71/42/71 72/57/72

v 43.8268 49.2388 40
vn 0.382165 0.923316 0.0379196
f 72/57/72 140/53/140 139/58/139

f 140/53/140 72/57/72 73/56/73

v 43.8268 49.2388 -40
vn 0.382165 0.923316 -0.0379195
f 73/56/73 141/54/141 140/53/140

f 141/54/141 73/56/73 74/55/74

f 75/75/75 141/54/141 74/55/74

f 141/54/141 75/75/75 116/74/116

f 141/54/141 116/74/116 120/52/120

f 116/74/116 117/73/117 120/52/120

f 117/73/117 118/72/118 120/52/120

f 118/72/118 119/71/119 120/52/120

f 120/52/120 140/53/140 141/54/141

f 140/53/140 120/52/120 121/40/121

f 140/53/140 121/40/121 139/58/139

f 139/58/139 121/40/121 138/41/138

f 138/41/138 121/40/121 137/21/137

f 137/21/137 121/40/121 136/20/136

f 122/39/122 136/20/136 121/40/121

f 136/20/136 122/39/122 135/18/135

f 122/39/122 134/16/134 135/18/135

f 122/39/122 133/14/133 134/16/134

f 122/39/122 131/12/131 133/14/133

f 122/39/122 123/37/123 131/12/131

f 132/65/132 66/48/66 67/60/67

v -46.5328 43.8268 46.5328
vn -0.653142 0.38316 0.653142
f 66/48/66 132/65/132 142/78/142

f 132/79/132 129/45/129 142/46/142

f 129/45/129 132/79/132 130/63/130

f 63/31/63 142/46/142 129/45/129

f 142/46/142 63/31/63 64/32/64

f 65/34/65 142/78/142 64/33/64

f 142/78/142 65/34/65 66/48/66

f 77/31/77 115/46/115 76/45/76

v 47.0711 40 -47.0711
vn 0.703699 0.0980526 -0.7037
f 115/46/115 77/31/77 143/32/143

f 78/2/78 143/32/143 77/31/77

v 47.0711 -40 -47.0711
vn 0.703699 -0.0980527 -0.7037
f 143/32/143 78/2/78 144/4/144

v 46.5328 -43.8268 -46.5328
vn 0.653141 -0.38316 -0.653142
f 78/2/78 145/59/145 144/4/144

f 145/59/145 78/2/78 79/3/79

v 45 -47.0711 -45
vn 0.499631 -0.707628 -0.499631
f 79/3/79 146/28/146 145/59/145

f 146/28/146 79/3/79 80/27/80

vt -0.05 -0.95
f 81/67/81 146/84/146 80/66/80

f 146/84/146 81/67/81 82/68/82

v 42.706 -47.0711 -46.5328
vn 0.270398 -0.707629 -0.652799
f 82/68/82 147/77/147 146/84/146

f 147/77/147 82/68/82 83/69/83

f 84/70/84 147/77/147 83/69/83

v 40 -47.0711 -47.0711
vn 0.0697604 -0.705643 -0.705125
f 147/77/147 84/70/84 148/76/148

f 85/71/85 148/76/148 84/70/84

v -40 -47.0711 -47.0711
vn -0.0697605 -0.705643 -0.705125
f 148/76/148 85/71/85 149/23/149

f 86/72/86 149/23/149 85/71/85

v -42.706 -47.0711 -46.5328
vn -0.270398 -0.707628 -0.652799
f 149/23/149 86/72/86 150/81/150

f 87/73/87 150/81/150 86/72/86

v -45 -47.0711 -45
vn -0.499631 -0.707629 -0.499631
f 150/81/150 87/73/87 151/80/151

f 88/74/88 151/80/151 87/73/87

f 151/80/151 88/74/88 89/75/89

f 91/8/91 151/9/151 89/10/89

v -46.5328 -43.8268 -46.5328
vn -0.653142 -0.38316 -0.653141
f 151/9/151 91/8/91 152/5/152

f 93/6/93 152/5/152 91/8/91

v -47.0711 -40 -47.0711
vn -0.7037 -0.0980527 -0.703699
f 152/5/152 93/6/93 153/7/153

f 95/34/95 153/7/153 93/6/93

v -47.0711 40 -47.0711
vn -0.7037 0.0980527 -0.703699
f 153/7/153 95/34/95 154/33/154

v -46.5328 43.8268 -46.5328
vn -0.653142 0.38316 -0.653142
f 95/34/95 155/47/155 154/33/154

f 155/47/155 95/34/95 97/48/97

v -45 47.0711 -45
vn -0.499631 0.707629 -0.49963
f 97/48/97 156/65/156 155/47/155

f 156/65/156 97/48/97 99/60/99

f 101/67/101 156/84/156 99/66/99

f 156/84/156 101/67/101 103/68/103

f 103/68/103 107/77/107 156/84/156

f 107/77/107 103/68/103 104/69/104

f 107/63/107 155/46/155 156/64/156

f 155/46/155 107/63/107 108/45/108

f 108/45/108 154/32/154 155/46/155

v -43.8268 40 -49.2388
vn -0.380839 0.0980527 -0.919428
f 154/32/154 108/45/108 157/31/157

f 109/44/109 157/31/157 108/45/108

v -40 40 -50
vn -0.097567 0.097567 -0.990435
f 157/31/157 109/44/109 158/30/158

f 111/43/111 158/30/158 109/44/109

v 40 40 -50
vn 0.097567 0.097567 -0.990435
f 158/30/158 111/43/111 159/35/159

f 113/48/113 159/35/159 111/43/111

v 43.8268 40 -49.2388
vn 0.380839 0.0980526 -0.919428
f 159/35/159 113/48/113 160/34/160

f 115/78/115 160/34/160 113/48/113

f 160/34/160 115/78/115 143/33/143

v 43.8268 -40 -49.2388
vn 0.380839 -0.0980527 -0.919428
f 143/33/143 161/6/161 160/34/160

f 161/6/161 143/33/143 144/7/144

v 43.5355 -43.8268 -48.5355
vn 0.353478 -0.38316 -0.853371
f 144/7/144 162/8/162 161/6/161

f 162/8/162 144/7/144 145/5/145

f 145/5/145 147/10/147 162/8/162

f 147/10/147 145/5/145 146/9/146

f 148/23/148 162/8/162 147/10/147

v 40 -43.8268 -49.2388
vn 0.0907512 -0.38134 -0.91997
f 162/8/162 148/23/148 163/24/163

f 149/25/149 163/24/163 148/23/148

v -40 -43.8268 -49.2388
vn -0.0907512 -0.38134 -0.91997
f 163/24/163 149/25/149 164/26/164

f 150/27/150 164/26/164 149/25/149

v -43.5355 -43.8268 -48.5355
vn -0.353478 -0.38316 -0.853371
f 164/26/164 150/27/150 165/3/165

f 151/28/151 165/3/165 150/27/150

f 165/3/165 151/28/151 152/1/152

v -43.8268 -40 -49.2388
vn -0.380839 -0.0980526 -0.919428
f 152/1/152 166/2/166 165/3/165

f 166/2/166 152/1/152 153/4/153

f 153/4/153 157/31/157 166/2/166

f 157/31/157 153/4/153 154/32/154

f 158/30/158 166/2/166 157/31/157

v -40 -40 -50
vn -0.097567 -0.097567 -0.990435
f 166/2/166 158/30/158 167/29/167

f 159/35/159 167/29/167 158/30/158

v 40 -40 -50
vn 0.097567 -0.097567 -0.990435
f 167/29/167 159/35/159 168/36/168

f 160/34/160 168/36/168 159/35/159

f 168/36/168 160/34/160 161/6/161

f 161/6/161 163/24/163 168/36/168

f 163/24/163 161/6/161 162/8/162

f 164/26/164 168/36/168 163/24/163

f 168/36/168 164/26/164 167/29/167

f 165/3/165 167/29/167 164/26/164

f 167/29/167 165/3/165 166/2/166

