# Alias OBJ Model File
# Exported from SketchUp, (c) 2000-2012 Trimble Navigation Limited
# File units = millimeters

mtllib Boxhead.mtl

g Mesh1 Group1 Model

usemtl Material2
v 491.067 1.27 -84.9514
vt -6.66667 0
vn -1 0 -0
v 491.067 1.27 -51.0847
vt -5.33333 0
v 491.067 277.034 -51.0847
vt -5.33333 10.8568
v 491.067 277.034 -84.9514
vt -6.66667 10.8568
f 1/1/1 2/2/1 3/3/1 4/4/1 

vt -52 6.66667
vn 0 -1 -0
v 592.667 1.27 -152.685
vt -56 9.33333
vt -52 5.33333
f 1/5/2 5/6/2 2/7/2

v 474.133 1.27 -84.9514
vt -51.3333 6.66667
f 6/8/2 5/6/2 1/5/2

v 372.533 1.27 -152.685
vt -47.3333 9.33333
f 6/8/2 7/9/2 5/6/2

v 372.533 1.27 84.3819
vt -47.3333 0
f 7/9/2 6/8/2 8/10/2

v 474.133 1.27 84.3819
vt -51.3333 0
f 6/8/2 9/11/2 8/10/2

v 474.133 1.27 -51.0847
vt -51.3333 5.33333
f 9/11/2 6/8/2 10/12/2

vt 5.33333 0
vn 1 0 -0
vt 6.66667 0
v 474.133 277.034 -84.9514
vt 6.66667 10.8568
v 474.133 277.034 -51.0847
vt 5.33333 10.8568
f 10/13/3 6/14/3 11/15/3 12/16/3 

vt 51.3333 0
vn 0 0 1
vt 52 0
vt 52 10.8568
vt 51.3333 10.8568
f 6/17/4 1/18/4 4/19/4 11/20/4 

usemtl FrontColor
v 592.667 277.034 -152.685
vt 56 9.33333
vn 0 1 -0
vt 51.3333 6.66667
vt 52 6.66667
f 13/21/5 11/22/5 4/23/5

v 372.533 277.034 -152.685
vt 47.3333 9.33333
f 14/24/5 11/22/5 13/21/5

v 474.133 277.034 84.3819
f 14/24/5 15/17/5 11/22/5

v 372.533 277.034 84.3819
vt 47.3333 0
f 15/17/5 14/24/5 16/25/5

usemtl Material2
vt -9.33333 0
vt 0 0
vt 0 10.8568
vt -9.33333 10.8568
f 7/26/1 8/27/1 16/28/1 14/29/1 

vt 47.3333 10.8568
f 8/25/4 9/17/4 15/20/4 16/30/4 

v 474.133 1.27 16.6486
vt 2.66667 0
v 474.133 277.034 16.6486
vt 2.66667 10.8568
f 9/27/3 17/31/3 18/32/3 15/28/3 

vt -51.3333 2.66667
f 9/11/2 10/12/2 17/33/2

f 2/7/2 17/33/2 10/12/2

v 491.067 1.27 16.6486
vt -52 2.66667
f 17/33/2 2/7/2 19/34/2

f 2/7/2 5/6/2 19/34/2

v 491.067 1.27 84.3819
vt -52 0
f 19/34/2 5/6/2 20/35/2

v 592.667 1.27 84.3819
vt -56 0
f 20/35/2 5/6/2 21/36/2

vt 9.33333 0
vt 9.33333 10.8568
v 592.667 277.034 84.3819
f 21/27/3 5/37/3 13/38/3 22/28/3 

vn 0 0 -1
vt -47.3333 10.8568
vt -56 10.8568
f 5/36/6 7/10/6 14/39/6 13/40/6 

usemtl FrontColor
vt 56 0
f 13/21/5 4/23/5 22/41/5

vt 52 5.33333
f 3/42/5 22/41/5 4/23/5

v 491.067 277.034 16.6486
vt 52 2.66667
f 23/43/5 22/41/5 3/42/5

v 491.067 277.034 84.3819
f 22/41/5 23/43/5 24/18/5

usemtl Material2
vt -2.66667 0
vt -2.66667 10.8568
f 19/44/1 20/27/1 24/28/1 23/45/1 

vt 56 10.8568
f 20/18/4 21/41/4 22/46/4 24/19/4 

f 17/17/4 19/18/4 23/19/4 18/20/4 

usemtl FrontColor
vt 51.3333 5.33333
vt 51.3333 2.66667
f 23/43/5 12/47/5 18/48/5

f 12/47/5 23/43/5 3/42/5

usemtl Material2
vt -51.3333 10.8568
vt -52 10.8568
f 2/35/6 10/11/6 12/49/6 3/50/6 

usemtl FrontColor
f 11/22/5 18/48/5 12/47/5

f 11/22/5 15/17/5 18/48/5

g Mesh2 Group1 Model

usemtl Material2
v 33.8667 1.27 -84.9514
vt -34 0
v 16.9333 1.27 -84.9514
vt -33.3333 0
v 16.9333 277.034 -84.9514
vt -33.3333 10.8568
v 33.8667 277.034 -84.9514
vt -34 10.8568
f 25/51/6 26/52/6 27/53/6 28/54/6 

v 16.9333 1.27 84.3819
v -84.6667 1.27 84.3819
vt -29.3333 0
v -84.6667 1.27 -152.685
vt -29.3333 9.33333
v 16.9333 1.27 -152.685
vt -33.3333 9.33333
vt -33.3333 6.66667
vt -34 6.66667
v 33.8667 1.27 -153.023
vt -34 9.34667
v 135.467 1.27 -153.023
vt -38 9.34667
v 135.467 1.27 84.3819
vt -38 0
v 35.2213 1.27 84.3819
vt -34.0533 0
v 35.2213 1.27 -0.284742
vt -34.0533 3.33333
v 16.9333 1.27 -0.284742
vt -33.3333 3.33333
f 29/52/2 30/55/2 31/56/2 32/57/2 26/58/2 25/59/2 33/60/2 34/61/2 35/62/2 36/63/2 37/64/2 38/65/2 

vt 29.3333 0
vt 33.3333 0
v 16.9333 277.034 84.3819
vt 33.3333 10.8568
v -84.6667 277.034 84.3819
vt 29.3333 10.8568
f 30/66/4 29/67/4 39/68/4 40/69/4 

vt 3.33333 0
v 16.9333 277.034 -0.284742
vt 3.33333 10.8568
f 29/27/3 38/70/3 41/71/3 39/28/3 

vt 34.0533 0
v 35.2213 277.034 -0.284742
vt 34.0533 10.8568
f 38/67/4 37/72/4 42/73/4 41/68/4 

vt -3.33333 0
v 35.2213 277.034 84.3819
vt -3.33333 10.8568
f 37/74/1 36/27/1 43/28/1 42/75/1 

vt 38 0
v 135.467 277.034 84.3819
vt 38 10.8568
f 36/72/4 35/76/4 44/77/4 43/73/4 

vt 9.34667 0
v 135.467 277.034 -153.023
vt 9.34667 10.8568
f 35/27/3 34/78/3 45/79/3 44/28/3 

v 33.8667 277.034 -153.023
vt -38 10.8568
f 34/62/6 33/51/6 46/54/6 45/80/6 

vt -9.34667 0
vt -9.34667 10.8568
f 33/81/1 25/1/1 28/4/1 46/82/1 

usemtl FrontColor
vt 33.3333 3.33333
vt 34.0533 3.33333
vt 38 9.34667
vt 34 9.34667
vt 34 6.66667
vt 33.3333 6.66667
v 16.9333 277.034 -152.685
vt 33.3333 9.33333
v -84.6667 277.034 -152.685
vt 29.3333 9.33333
f 40/66/5 39/67/5 41/83/5 42/84/5 43/72/5 44/76/5 45/85/5 46/86/5 28/87/5 27/88/5 47/89/5 48/90/5 

usemtl Material2
f 26/14/3 32/37/3 47/38/3 27/15/3 

vt -29.3333 10.8568
f 32/52/6 31/55/6 48/91/6 47/53/6 

f 31/26/1 30/27/1 40/28/1 48/29/1 

g Mesh3 Group1 Model

v 355.6 1.27 84.3819
v 355.6 1.27 16.6486
v 355.6 277.034 16.6486
v 355.6 277.034 84.3819
f 49/27/3 50/31/3 51/32/3 52/28/3 

vt -46.6667 0
v 152.4 1.27 84.3819
vt -38.6667 0
v 152.4 1.27 -152.685
vt -38.6667 9.33333
v 355.6 1.27 -152.685
vt -46.6667 9.33333
v 355.6 1.27 -84.9514
vt -46.6667 6.66667
v 254 1.27 -84.9514
vt -42.6667 6.66667
v 254 1.27 -68.0181
vt -42.6667 6
v 338.667 1.27 -68.0181
vt -46 6
v 338.667 1.27 -0.284742
vt -46 3.33333
v 254 1.27 -0.284742
vt -42.6667 3.33333
v 254 1.27 16.6486
vt -42.6667 2.66667
vt -46.6667 2.66667
f 49/92/2 53/93/2 54/94/2 55/95/2 56/96/2 57/97/2 58/98/2 59/99/2 60/100/2 61/101/2 62/102/2 50/103/2 

vt 38.6667 0
vt 46.6667 0
vt 46.6667 10.8568
v 152.4 277.034 84.3819
vt 38.6667 10.8568
f 53/104/4 49/105/4 52/106/4 63/107/4 

usemtl FrontColor
vt 46.6667 2.66667
v 254 277.034 16.6486
vt 42.6667 2.66667
v 254 277.034 -0.284742
vt 42.6667 3.33333
v 338.667 277.034 -0.284742
vt 46 3.33333
v 338.667 277.034 -68.0181
vt 46 6
v 254 277.034 -68.0181
vt 42.6667 6
v 254 277.034 -84.9514
vt 42.6667 6.66667
v 355.6 277.034 -84.9514
vt 46.6667 6.66667
v 355.6 277.034 -152.685
vt 46.6667 9.33333
v 152.4 277.034 -152.685
vt 38.6667 9.33333
f 63/104/5 52/105/5 51/108/5 64/109/5 65/110/5 66/111/5 67/112/5 68/113/5 69/114/5 70/115/5 71/116/5 72/117/5 

usemtl Material2
vt -42.6667 0
vt -42.6667 10.8568
vt -46.6667 10.8568
f 50/92/6 62/118/6 64/119/6 51/120/6 

f 62/31/3 61/70/3 65/71/3 64/32/3 

vt 42.6667 0
vt 46 0
vt 46 10.8568
vt 42.6667 10.8568
f 61/121/4 60/122/4 66/123/4 65/124/4 

vt 6 0
vt 6 10.8568
f 60/70/3 59/125/3 67/126/3 66/71/3 

vt -46 0
vt -46 10.8568
f 59/127/6 58/118/6 68/119/6 67/128/6 

f 58/125/3 57/14/3 69/15/3 68/126/3 

f 57/121/4 56/105/4 70/106/4 69/124/4 

f 56/14/3 55/37/3 71/38/3 70/15/3 

vt -38.6667 10.8568
f 55/92/6 54/93/6 72/129/6 71/120/6 

f 54/26/1 53/27/1 63/28/1 72/29/1 

g Mesh4 Group1 Model

v -829.733 1.27 -152.685
vt 0 9.33333
v -728.133 1.27 -84.9514
vt -4 6.66667
v -829.733 1.27 84.3819
f 73/130/2 74/131/2 75/27/2

v -609.6 1.27 -152.685
vt -8.66667 9.33333
f 74/131/2 73/130/2 76/132/2

vt -8.66667 0
v -829.733 277.034 -152.685
v -609.6 277.034 -152.685
vt -8.66667 10.8568
f 76/133/6 73/27/6 77/28/6 78/134/6 

v -829.733 277.034 84.3819
f 73/26/1 75/27/1 79/28/1 77/29/1 

v -592.667 1.27 84.3819
v -592.667 277.034 84.3819
f 75/27/4 80/37/4 81/38/4 79/28/4 

v -728.133 1.27 16.6486
vt -4 2.66667
f 75/27/2 82/135/2 80/26/2

f 82/135/2 75/27/2 74/131/2

v -728.133 1.27 -68.3567
vt -4 6.01333
f 82/135/2 74/131/2 83/136/2

vt 6.01333 0
v -728.133 277.034 -84.9514
v -728.133 277.034 -68.3567
vt 6.01333 10.8568
f 83/137/3 74/14/3 84/15/3 85/138/3 

vt 4 0
v -711.2 1.27 -84.9514
vt 4.66667 0
v -711.2 277.034 -84.9514
vt 4.66667 10.8568
vt 4 10.8568
f 74/139/4 86/140/4 87/141/4 84/142/4 

vt -4.66667 6.66667
f 74/131/2 76/132/2 86/143/2

v -711.2 1.27 -68.3567
vt -4.66667 6.01333
f 86/143/2 76/132/2 88/144/2

v -694.267 1.27 -0.284742
vt -5.33333 3.33333
f 88/144/2 76/132/2 89/145/2

v -694.267 1.27 16.6486
vt -5.33333 2.66667
f 89/145/2 76/132/2 90/146/2

v -609.6 1.27 -68.0181
vt -8.66667 6
f 91/147/2 90/146/2 76/132/2

f 80/26/2 90/146/2 91/147/2

f 80/26/2 82/135/2 90/146/2

vt -4 0
v -728.133 277.034 16.6486
vt -4 10.8568
v -694.267 277.034 16.6486
f 90/2/6 82/148/6 92/149/6 93/3/6 

v -728.133 1.27 -0.284742
v -728.133 277.034 -0.284742
f 82/31/3 94/70/3 95/71/3 92/32/3 

vt -4 3.33333
f 82/135/2 83/136/2 94/150/2

f 88/144/2 94/150/2 83/136/2

f 94/150/2 88/144/2 89/145/2

v -694.267 277.034 -0.284742
f 94/139/4 89/13/4 96/16/4 95/142/4 

f 89/74/1 90/44/1 93/45/1 96/75/1 

usemtl FrontColor
vt 5.33333 2.66667
vt 5.33333 3.33333
f 93/151/5 81/37/5 96/152/5

vt 4 2.66667
f 92/153/5 81/37/5 93/151/5

f 92/153/5 79/27/5 81/37/5

f 79/27/5 92/153/5 77/130/5

vt 4 6.66667
f 84/154/5 77/130/5 92/153/5

vt 8.66667 9.33333
f 77/130/5 84/154/5 78/155/5

vt 4.66667 6.66667
f 78/155/5 84/154/5 87/156/5

f 78/155/5 87/156/5 96/152/5

v -711.2 277.034 -68.3567
vt 4.66667 6.01333
f 97/157/5 96/152/5 87/156/5

vt 4 6.01333
f 85/158/5 96/152/5 97/157/5

vt 4 3.33333
f 96/152/5 85/158/5 95/159/5

f 84/154/5 95/159/5 85/158/5

f 84/154/5 92/153/5 95/159/5

usemtl Material2
vt -4.66667 0
vt -4.66667 10.8568
f 88/160/6 83/148/6 85/149/6 97/161/6 

vt -6.01333 0
vt -6.01333 10.8568
f 86/1/1 88/162/1 97/163/1 87/4/1 

usemtl FrontColor
v -609.6 277.034 -68.0181
vt 8.66667 6
f 78/155/5 96/152/5 98/164/5

f 96/152/5 81/37/5 98/164/5

v -592.667 277.034 -68.0181
vt 9.33333 6
f 98/164/5 81/37/5 99/165/5

usemtl Material2
v -592.667 1.27 -68.0181
f 80/27/3 100/125/3 99/126/3 81/28/3 

vt -9.33333 6
f 80/26/2 91/147/2 100/166/2

f 100/26/6 91/133/6 98/134/6 99/29/6 

f 91/125/3 76/37/3 78/38/3 98/126/3 

g Mesh5 Group1 Model

v -101.6 1.27 -152.685
vt -28.6667 0
v -203.2 1.27 -152.685
vt -24.6667 0
v -203.2 277.034 -152.685
vt -24.6667 10.8568
v -101.6 277.034 -152.685
vt -28.6667 10.8568
f 101/167/6 102/168/6 103/169/6 104/170/6 

v -237.067 1.27 84.3819
vt -23.3333 0
v -338.667 1.27 84.3819
vt -19.3333 0
v -304.8 1.27 -34.1514
vt -20.6667 4.66667
v -338.667 1.27 -152.685
vt -19.3333 9.33333
v -237.067 1.27 -152.685
vt -23.3333 9.33333
v -220.133 1.27 -118.818
vt -24 8
vt -24.6667 9.33333
vt -28.6667 9.33333
v -135.467 1.27 -34.1514
vt -27.3333 4.66667
v -101.6 1.27 84.3819
v -203.2 1.27 84.3819
v -220.133 1.27 50.5153
vt -24 1.33333
f 105/171/2 106/172/2 107/173/2 108/174/2 109/175/2 110/176/2 102/177/2 101/178/2 111/179/2 112/167/2 113/168/2 114/180/2 

vt 19.3333 0
vt 23.3333 0
v -237.067 277.034 84.3819
vt 23.3333 10.8568
v -338.667 277.034 84.3819
vt 19.3333 10.8568
f 106/181/4 105/182/4 115/183/4 116/184/4 

vt 10.435 1.01052e-17
vn 0.894427 -4.84198e-19 0.447214
vt 11.9257 1.01052e-17
v -220.133 277.034 50.5153
vt 11.9257 10.8568
vt 10.435 10.8568
f 105/185/7 114/186/7 117/187/7 115/188/7 

vt 9.54056 -1.0565e-17
vn -0.894427 -4.78865e-19 0.447214
vt 11.0313 -1.0565e-17
v -203.2 277.034 84.3819
vt 11.0313 10.8568
vt 9.54056 10.8568
f 114/189/8 113/190/8 118/191/8 117/192/8 

vt 24.6667 0
vt 28.6667 0
v -101.6 277.034 84.3819
vt 28.6667 10.8568
vt 24.6667 10.8568
f 113/193/4 112/194/4 119/195/4 118/196/4 

vt -7.87534 6.72092e-17
vn 0.961524 -2.43832e-18 -0.274721
vt -3.02193 6.72092e-17
v -135.467 277.034 -34.1514
vt -3.02193 10.8568
vt -7.87534 10.8568
f 112/197/9 111/198/9 120/199/9 119/200/9 

vt 11.9962 -6.09571e-17
vn 0.961524 2.43832e-18 0.274721
vt 16.8496 -6.09571e-17
vt 16.8496 10.8568
vt 11.9962 10.8568
f 111/201/10 101/202/10 104/203/10 120/204/10 

usemtl FrontColor
vt 24 1.33333
vt 27.3333 4.66667
vt 28.6667 9.33333
vt 24.6667 9.33333
v -220.133 277.034 -118.818
vt 24 8
v -237.067 277.034 -152.685
vt 23.3333 9.33333
v -338.667 277.034 -152.685
vt 19.3333 9.33333
v -304.8 277.034 -34.1514
vt 20.6667 4.66667
f 116/181/5 115/182/5 117/205/5 118/193/5 119/194/5 120/206/5 104/207/5 103/208/5 121/209/5 122/210/5 123/211/5 124/212/5 

usemtl Material2
vt -19.3793 1.29447e-17
vn -0.894427 7.23631e-19 -0.447214
vt -17.8885 1.29447e-17
vt -17.8885 10.8568
vt -19.3793 10.8568
f 102/213/11 110/214/11 121/215/11 103/216/11 

vt -3.57771 1.20817e-17
vn 0.894427 -4.8242e-19 -0.447214
vt -2.087 1.20817e-17
vt -2.087 10.8568
vt -3.57771 10.8568
f 110/217/12 109/218/12 122/219/12 121/220/12 

vt -19.3333 10.8568
vt -23.3333 10.8568
f 109/171/6 108/172/6 123/221/6 122/222/6 

vt -3.66295 -2.03043e-17
vn -0.961524 -9.59856e-19 0.274721
vt 1.19046 -2.03043e-17
vt 1.19046 10.8568
vt -3.66295 10.8568
f 108/223/13 107/224/13 124/225/13 123/226/13 

vt -10.1647 4.53271e-17
vn -0.961524 2.43832e-18 -0.274721
vt -5.31128 4.53271e-17
vt -5.31128 10.8568
vt -10.1647 10.8568
f 107/227/14 106/228/14 116/229/14 124/230/14 

g Mesh6 Group1 Model

v 609.6 1.27 -152.685
vt -56.6667 9.33333
v 711.2 1.27 -68.0181
vt -60.6667 6
v 609.6 1.27 84.3819
vt -56.6667 0
f 125/231/2 126/232/2 127/233/2

v 795.867 1.27 -152.685
vt -64 9.33333
f 126/232/2 125/231/2 128/234/2

vt -64 0
v 609.6 277.034 -152.685
vt -56.6667 10.8568
v 795.867 277.034 -152.685
vt -64 10.8568
f 128/235/6 125/233/6 129/236/6 130/237/6 

v 609.6 277.034 84.3819
f 125/26/1 127/27/1 131/28/1 129/29/1 

vt 56.6667 0
v 795.867 1.27 84.3819
vt 64 0
v 795.867 277.034 84.3819
vt 64 10.8568
vt 56.6667 10.8568
f 127/238/4 132/239/4 133/240/4 131/241/4 

v 711.2 1.27 -0.284742
vt -60.6667 3.33333
f 127/233/2 134/242/2 132/235/2

f 134/242/2 127/233/2 126/232/2

v 711.2 277.034 -68.0181
v 711.2 277.034 -0.284742
f 134/70/3 126/125/3 135/126/3 136/71/3 

vt 60.6667 0
v 728.133 1.27 -68.0181
vt 61.3333 0
v 728.133 277.034 -68.0181
vt 61.3333 10.8568
vt 60.6667 10.8568
f 126/243/4 137/244/4 138/245/4 135/246/4 

vt -61.3333 6
f 126/232/2 128/234/2 137/247/2

v 728.133 1.27 -0.284742
vt -61.3333 3.33333
f 137/247/2 128/234/2 139/248/2

f 132/235/2 139/248/2 128/234/2

f 132/235/2 134/242/2 139/248/2

vt -61.3333 0
vt -60.6667 0
vt -60.6667 10.8568
v 728.133 277.034 -0.284742
vt -61.3333 10.8568
f 139/249/6 134/250/6 136/251/6 140/252/6 

usemtl FrontColor
vt 60.6667 3.33333
vt 61.3333 3.33333
f 136/253/5 133/239/5 140/254/5

f 136/253/5 131/238/5 133/239/5

vt 56.6667 9.33333
f 131/238/5 136/253/5 129/255/5

vt 60.6667 6
f 135/256/5 129/255/5 136/253/5

vt 64 9.33333
f 129/255/5 135/256/5 130/257/5

vt 61.3333 6
f 130/257/5 135/256/5 138/258/5

f 130/257/5 138/258/5 133/239/5

f 140/254/5 133/239/5 138/258/5

usemtl Material2
vt -6 0
vt -6 10.8568
f 137/259/1 139/74/1 140/75/1 138/260/1 

usemtl FrontColor
v 829.733 277.034 50.5153
vt 65.3333 1.33333
f 130/257/5 133/239/5 141/261/5

usemtl Material2
vt 45.2548 -3.81611e-19
vn 0.707107 8.4325e-21 0.707107
v 829.733 1.27 50.5153
vt 47.1405 -3.81611e-19
vt 47.1405 10.8568
vt 45.2548 10.8568
f 132/262/15 142/263/15 141/264/15 133/265/15 

v 829.733 1.27 -118.818
vt -65.3333 8
vt -65.3333 1.33333
f 132/235/2 143/266/2 142/267/2

f 132/235/2 128/234/2 143/266/2

vt -40.5408 1.94851e-17
vn 0.707107 -3.75765e-19 -0.707107
vt -38.6552 1.94851e-17
vt -38.6552 10.8568
v 829.733 277.034 -118.818
vt -40.5408 10.8568
f 143/268/16 128/269/16 130/270/16 144/271/16 

usemtl FrontColor
vt 65.3333 8
f 130/257/5 141/261/5 144/272/5

usemtl Material2
vt 1.33333 0
vt 8 0
vt 8 10.8568
vt 1.33333 10.8568
f 142/273/3 143/274/3 144/275/3 141/276/3 

g Mesh7 Group1 Model

usemtl FrontColor
v -575.733 277.034 84.3819
vt 10 0
v -474.133 277.034 -0.284742
vt 14 3.33333
v -575.733 277.034 -152.685
vt 10 9.33333
f 145/277/5 146/278/5 147/279/5

v -355.6 277.034 84.3819
vt 18.6667 0
f 146/278/5 145/277/5 148/280/5

usemtl Material2
v -575.733 1.27 84.3819
v -355.6 1.27 84.3819
vt 18.6667 10.8568
vt 10 10.8568
f 149/277/4 150/280/4 148/281/4 145/282/4 

vt -10 0
v -474.133 1.27 -0.284742
vt -14 3.33333
vt -18.6667 0
f 149/283/2 151/284/2 150/285/2

v -474.133 1.27 -68.0181
vt -14 6
f 151/284/2 149/283/2 152/286/2

v -575.733 1.27 -152.685
vt -10 9.33333
f 153/287/2 152/286/2 149/283/2

v -355.6 1.27 -152.685
vt -18.6667 9.33333
f 152/286/2 153/287/2 154/288/2

vt -10 10.8568
v -355.6 277.034 -152.685
vt -18.6667 10.8568
f 154/285/6 153/283/6 147/289/6 155/290/6 

f 153/26/1 149/27/1 145/28/1 147/29/1 

usemtl FrontColor
v -474.133 277.034 -68.0181
vt 14 6
vt 18.6667 9.33333
f 147/279/5 156/291/5 155/292/5

f 156/291/5 147/279/5 146/278/5

usemtl Material2
f 151/70/3 152/125/3 156/126/3 146/71/3 

vt 14 0
v -457.2 1.27 -68.0181
vt 14.6667 0
v -457.2 277.034 -68.0181
vt 14.6667 10.8568
vt 14 10.8568
f 152/293/4 157/294/4 158/295/4 156/296/4 

vt -14.6667 6
f 152/286/2 154/288/2 157/297/2

v -457.2 1.27 -0.284742
vt -14.6667 3.33333
f 157/297/2 154/288/2 159/298/2

f 150/285/2 159/298/2 154/288/2

f 150/285/2 151/284/2 159/298/2

vt -14.6667 0
vt -14 0
vt -14 10.8568
v -457.2 277.034 -0.284742
vt -14.6667 10.8568
f 159/299/6 151/300/6 146/301/6 160/302/6 

usemtl FrontColor
vt 14.6667 3.33333
f 146/278/5 148/280/5 160/303/5

vt 14.6667 6
f 160/303/5 148/280/5 158/304/5

f 155/292/5 158/304/5 148/280/5

f 155/292/5 156/291/5 158/304/5

usemtl Material2
f 150/27/3 154/37/3 155/38/3 148/28/3 

f 157/259/1 159/74/1 160/75/1 158/260/1 

